# Blender v2.90.1 OBJ File: ''
# www.blender.org
mtllib Select model 2.mtl
o Select_model
v 0.000000 -0.000000 1.000000
v 1.000000 -0.000000 1.000000
v 1.000000 1.000000 1.000000
v 0.000000 1.000000 1.000000
v 0.000000 2.000000 1.000000
v 1.000000 2.000000 1.000000
v 1.000000 2.000000 0.000000
v 0.000000 2.000000 0.000000
v 0.000000 1.000000 0.000000
v 1.000000 1.000000 0.000000
v 1.000000 0.000000 0.000000
v 0.000000 0.000000 0.000000
v 2.000000 1.000000 1.000000
v 2.000000 1.000000 0.000000
v 2.000000 2.000000 0.000000
v 2.000000 2.000000 1.000000
v 3.000000 1.000000 1.000000
v 3.000000 2.000000 1.000000
v 3.000000 1.000000 0.000000
v 3.000000 2.000000 0.000000
v 0.000000 -1.000000 1.000000
v 1.000000 -1.000000 1.000000
v 1.000000 -1.000000 -0.000000
v 0.000000 -1.000000 -0.000000
vt 0.375000 0.000000
vt 0.625000 0.000000
vt 0.625000 0.250000
vt 0.375000 0.250000
vt 0.375000 0.250000
vt 0.625000 0.250000
vt 0.625000 0.500000
vt 0.375000 0.500000
vt 0.375000 0.500000
vt 0.625000 0.500000
vt 0.625000 0.750000
vt 0.375000 0.750000
vt 0.875000 0.000000
vt 0.625000 0.000000
vt 0.875000 0.000000
vt 0.875000 0.250000
vt 0.125000 0.000000
vt 0.125000 0.250000
vt 0.625000 0.500000
vt 0.625000 0.500000
vt 0.625000 0.500000
vt 0.625000 0.500000
vt 0.625000 0.250000
vt 0.625000 0.250000
vt 0.625000 0.250000
vt 0.625000 0.250000
vt 0.375000 0.750000
vt 0.625000 0.750000
vt 0.625000 1.000000
vt 0.375000 1.000000
vt 0.375000 0.000000
vt 0.125000 0.000000
vn 0.0000 -0.0000 1.0000
vn 0.0000 1.0000 0.0000
vn 0.0000 0.0000 -1.0000
vn 1.0000 0.0000 0.0000
vn -1.0000 0.0000 0.0000
vn 0.0000 -1.0000 -0.0000
usemtl initialShadingGroup
s off
f 1/1/1 2/2/1 3/3/1 4/4/1
f 5/5/2 6/6/2 7/7/2 8/8/2
f 9/9/3 10/10/3 11/11/3 12/12/3
f 11/13/4 2/2/4 22/14/4 23/15/4
f 2/2/4 11/13/4 10/16/4 3/3/4
f 12/17/5 1/1/5 4/4/5 9/18/5
f 4/4/1 3/3/1 6/6/1 5/5/1
f 14/19/3 15/20/3 20/21/3 19/22/3
f 10/10/3 9/9/3 8/8/3 7/7/3
f 9/9/5 4/4/5 5/5/5 8/8/5
f 3/3/6 10/10/6 14/19/6 13/23/6
f 10/10/3 7/7/3 15/20/3 14/19/3
f 7/7/2 6/6/2 16/24/2 15/20/2
f 6/6/1 3/3/1 13/23/1 16/24/1
f 17/25/4 19/22/4 20/21/4 18/26/4
f 16/24/1 13/23/1 17/25/1 18/26/1
f 15/20/2 16/24/2 18/26/2 20/21/2
f 13/23/6 14/19/6 19/22/6 17/25/6
f 24/27/6 23/28/6 22/29/6 21/30/6
f 12/12/3 11/11/3 23/28/3 24/27/3
f 2/2/1 1/1/1 21/31/1 22/14/1
f 1/1/5 12/17/5 24/32/5 21/31/5
